<svg width="391" height="170" viewBox="0 0 391 170" fill="none" xmlns="http://www.w3.org/2000/svg">
<path d="M15.52 62.48C14.3467 62.48 12.9867 62.16 11.44 61.52C9.89335 60.8267 8.61335 59.7067 7.60001 58.16C5.94668 57.36 4.69335 56.0533 3.84001 54.24C2.98668 52.4267 2.50668 50.3467 2.40001 48L0.0800135 7.04C0.0266803 5.97333 0.133347 5.28 0.400014 4.96C0.720014 4.58666 1.22668 4.4 1.92001 4.4C4.58668 4.4 6.74668 5.12 8.40001 6.56C10.1067 8 11.0133 9.86667 11.12 12.16L12.88 46.08H13.04C15.44 41.0667 17.5467 35.7067 19.36 30C21.2267 24.24 23.1467 18.4533 25.12 12.64C25.44 11.68 26.2933 11.2 27.68 11.2C28.3733 11.2 29.12 11.3333 29.92 11.6C30.7733 11.8667 31.5733 12.2933 32.32 12.88C33.76 13.3067 34.9067 14.0267 35.76 15.04C36.6667 16.0533 37.1467 17.1733 37.2 18.4L37.84 46.32H38C39.44 43.3867 40.8534 40.1067 42.24 36.48C43.68 32.8533 45.0133 29.2267 46.24 25.6C47.52 21.9733 48.64 18.64 49.6 15.6C50.56 12.56 51.3067 10.1333 51.84 8.32C52.3734 6.45333 52.64 5.52 52.64 5.52C52.96 4.72 53.92 4.32 55.52 4.32C57.3867 4.32 58.8533 4.96 59.92 6.24C61.04 7.46666 61.6 9.14667 61.6 11.28C61.6 12.9867 61.2 14.88 60.4 16.96C59.9734 18.1333 59.3067 19.8933 58.4 22.24C57.4934 24.5867 56.4267 27.3067 55.2 30.4C54.0267 33.4933 52.72 36.8 51.28 40.32C49.84 43.84 48.3467 47.3867 46.8 50.96C45.3067 54.5333 43.7867 57.9733 42.24 61.28C41.8667 62.08 41.2533 62.48 40.4 62.48C39.3333 62.48 38.1067 62.24 36.72 61.76C35.3333 61.28 34.1067 60.3733 33.04 59.04C31.0667 58.1867 29.6 56.7467 28.64 54.72C27.68 52.6933 27.2267 50.2933 27.28 47.52L27.44 33.2H27.28C26.2667 36.1867 25.2 39.3867 24.08 42.8C23.0133 46.2133 21.8933 49.5467 20.72 52.8C19.6 56 18.48 58.8267 17.36 61.28C16.9867 62.08 16.3733 62.48 15.52 62.48ZM73.1919 62.96C71.6986 62.96 70.1786 62.5067 68.6319 61.6C67.1386 60.64 65.7252 59.3867 64.3919 57.84C63.1119 56.24 62.0719 54.48 61.2719 52.56C60.4719 50.64 60.0719 48.72 60.0719 46.8C60.0719 43.0133 60.6052 39.2533 61.6719 35.52C62.7919 31.7867 64.3119 28.4 66.2319 25.36C68.2052 22.32 70.5252 19.8933 73.1919 18.08C75.8586 16.2667 78.7386 15.36 81.8319 15.36C83.2186 15.36 84.7386 15.7867 86.3919 16.64C88.0452 17.44 89.2452 18.64 89.9919 20.24C92.0186 21.2 93.5119 22.64 94.4719 24.56C95.4319 26.48 95.8052 28.24 95.5919 29.84C95.4319 31.12 94.8719 32.5867 93.9119 34.24C92.9519 35.84 91.7252 37.4933 90.2319 39.2C88.7386 40.8533 87.0852 42.4 85.2719 43.84C83.4586 45.2267 81.5919 46.3733 79.6719 47.28C77.8052 48.1333 75.9919 48.56 74.2319 48.56C73.5919 48.56 72.8986 48.3467 72.1519 47.92C72.3119 49.6267 72.7919 50.8533 73.5919 51.6C74.4452 52.2933 75.5652 52.64 76.9519 52.64C78.9786 52.64 81.2186 51.92 83.6719 50.48C86.1252 49.04 88.7386 47.12 91.5119 44.72C92.7386 45.3067 93.6719 46.08 94.3119 47.04C94.9519 47.9467 95.1919 49.0933 95.0319 50.48C94.8186 52.08 93.9652 53.6267 92.4719 55.12C91.0319 56.56 89.1919 57.8933 86.9519 59.12C84.7652 60.2933 82.4452 61.2267 79.9919 61.92C77.5919 62.6133 75.3252 62.96 73.1919 62.96ZM85.1119 24.16C83.0319 24.2667 81.1386 25.2267 79.4319 27.04C77.7252 28.8533 76.2852 31.0933 75.1119 33.76C73.9386 36.3733 73.0852 38.9867 72.5519 41.6C74.3119 41.2267 75.9652 40.32 77.5119 38.88C79.1119 37.3867 80.4986 35.7067 81.6719 33.84C82.8986 31.92 83.8319 30.08 84.4719 28.32C85.1119 26.5067 85.3252 25.12 85.1119 24.16ZM110.363 63.12C108.976 63.12 107.456 62.8 105.803 62.16C104.203 61.5733 102.816 60.5333 101.643 59.04C100.523 57.4933 99.9625 55.36 99.9625 52.64C99.9625 52 100.016 50.5333 100.123 48.24C100.283 45.9467 100.469 43.12 100.683 39.76C100.949 36.4 101.216 32.8267 101.483 29.04C101.803 25.2 102.123 21.44 102.443 17.76C102.763 14.08 103.083 10.7733 103.403 7.84C103.723 4.85333 104.016 2.58666 104.283 1.04C104.389 0.613331 104.656 0.346664 105.083 0.239999C105.509 0.0799977 105.883 -2.86102e-06 106.203 -2.86102e-06C107.376 -2.86102e-06 108.709 0.346664 110.203 1.04C111.749 1.73333 113.056 2.8 114.123 4.24C115.243 5.68 115.696 7.52 115.483 9.76C115.376 10.9333 115.216 12.7733 115.003 15.28C114.789 17.7867 114.523 20.6933 114.203 24C113.936 27.3067 113.669 30.8 113.403 34.48C113.136 38.1067 112.869 41.68 112.603 45.2C112.389 48.72 112.203 51.9467 112.043 54.88C111.883 57.76 111.803 60.08 111.803 61.84C111.803 62.1067 111.669 62.3733 111.403 62.64C111.189 62.96 110.843 63.12 110.363 63.12ZM135.243 63.04C133.269 63.04 131.216 62.7733 129.083 62.24C127.003 61.76 125.163 60.6133 123.563 58.8C121.749 57.04 120.496 55.0933 119.803 52.96C119.163 50.7733 118.843 48.1333 118.843 45.04C118.843 41.2 119.296 37.52 120.203 34C121.109 30.4267 122.416 27.28 124.123 24.56C125.883 21.7867 127.989 19.6 130.443 18C132.896 16.4 135.643 15.6 138.683 15.6C140.229 15.6 141.589 15.76 142.763 16.08C143.936 16.4 145.029 17.1733 146.043 18.4C147.909 18.9333 149.243 19.92 150.043 21.36C150.896 22.8 151.323 24.2933 151.323 25.84C151.323 27.2267 150.949 28.8267 150.203 30.64C149.509 32.4 148.843 34.2133 148.203 36.08C148.043 36.4533 147.883 36.7733 147.723 37.04C147.563 37.3067 147.216 37.44 146.683 37.44C146.096 37.44 145.376 37.1733 144.523 36.64C143.669 36.0533 142.816 35.36 141.963 34.56C141.163 33.76 140.496 32.96 139.963 32.16C139.429 31.36 139.163 30.7467 139.163 30.32C139.216 29.5733 139.456 28.64 139.883 27.52C140.363 26.4 141.003 25.2533 141.803 24.08C140.363 23.8133 138.976 24.3467 137.643 25.68C136.363 27.0133 135.216 28.88 134.203 31.28C133.189 33.6267 132.363 36.2133 131.723 39.04C131.136 41.8667 130.843 44.64 130.843 47.36C130.843 48.2133 130.869 49.0667 130.923 49.92C130.976 50.7733 131.083 51.5733 131.243 52.32C132.096 52.5333 133.003 52.64 133.963 52.64C135.936 52.64 137.669 52.24 139.163 51.44C140.709 50.5867 142.016 49.6 143.083 48.48C144.203 47.36 145.083 46.4 145.723 45.6C146.416 44.7467 146.896 44.32 147.163 44.32C148.229 44.32 149.109 44.72 149.803 45.52C150.496 46.32 150.843 47.4133 150.843 48.8C150.843 51.3067 150.123 53.6533 148.683 55.84C147.243 58.0267 145.349 59.7867 143.003 61.12C140.656 62.4 138.069 63.04 135.243 63.04ZM171.692 63.2C169.932 63.2 168.225 62.8533 166.572 62.16C164.972 61.52 163.665 60.4 162.652 58.8C160.092 57.5733 158.119 55.44 156.732 52.4C155.345 49.36 154.652 45.8133 154.652 41.76C154.652 38.24 155.132 34.9067 156.092 31.76C157.052 28.56 158.359 25.7333 160.012 23.28C161.665 20.8267 163.559 18.9067 165.692 17.52C167.879 16.08 170.172 15.36 172.572 15.36C174.599 15.36 176.625 15.7333 178.652 16.48C180.679 17.1733 182.439 18.4533 183.932 20.32C186.545 21.6533 188.545 23.6 189.932 26.16C191.372 28.72 192.092 31.52 192.092 34.56C192.092 38.4533 191.692 42.1333 190.892 45.6C190.092 49.0667 188.865 52.1333 187.212 54.8C185.559 57.4133 183.452 59.4667 180.892 60.96C178.332 62.4533 175.265 63.2 171.692 63.2ZM170.092 54.4C171.692 54.4 173.105 53.7067 174.332 52.32C175.559 50.9333 176.599 49.1733 177.452 47.04C178.305 44.8533 178.945 42.5067 179.372 40C179.852 37.4933 180.092 35.12 180.092 32.88C180.092 30.4267 179.799 28.3733 179.212 26.72C178.679 25.0667 177.799 24.24 176.572 24.24C174.972 24.24 173.559 24.9333 172.332 26.32C171.105 27.7067 170.065 29.4933 169.212 31.68C168.359 33.8133 167.692 36.1333 167.212 38.64C166.785 41.1467 166.572 43.52 166.572 45.76C166.572 48.2133 166.865 50.2667 167.452 51.92C168.039 53.5733 168.919 54.4 170.092 54.4ZM249.786 63.12C248.133 63.12 246.64 62.64 245.306 61.68C243.973 60.6667 242.906 59.36 242.106 57.76C241.306 56.16 240.906 54.48 240.906 52.72C240.906 51.12 241.013 49.3333 241.226 47.36C241.493 45.3867 241.813 43.4133 242.186 41.44C242.56 39.4667 242.96 37.7067 243.386 36.16L243.066 36C241.84 38.4533 240.533 41.2 239.146 44.24C237.813 47.28 236.586 50.4 235.466 53.6C234.346 56.8 233.44 59.8667 232.746 62.8C231.146 62.7467 229.6 62.64 228.106 62.48C226.666 62.32 225.573 61.7867 224.826 60.88C223.44 60.1867 222.426 59.12 221.786 57.68C221.146 56.24 220.746 54.5867 220.586 52.72C220.426 50.8533 220.346 48.9867 220.346 47.12C220.346 46.4267 220.4 45.4133 220.506 44.08C220.666 42.7467 220.853 41.3067 221.066 39.76C221.333 38.16 221.6 36.6667 221.866 35.28H221.626C219.386 39.6533 217.253 44.1333 215.226 48.72C213.253 53.3067 211.546 58 210.106 62.8C208.506 62.7467 207.2 62.48 206.186 62C205.173 61.52 204.186 60.8 203.226 59.84C201.68 58.9867 200.586 57.8667 199.946 56.48C199.306 55.04 198.986 53.52 198.986 51.92C198.986 47.0133 199.28 41.5733 199.866 35.6C200.506 29.6267 201.493 23.52 202.826 17.28C203.093 16.2133 203.52 15.68 204.106 15.68C205.44 15.68 206.773 16 208.106 16.64C209.44 17.28 210.533 18.24 211.386 19.52C212.293 20.8 212.746 22.4 212.746 24.32C212.746 24.6933 212.72 25.12 212.666 25.6C212.613 26.0267 212.533 26.4533 212.426 26.88L209.226 41.92H209.386C211.466 37.3333 213.52 33.0933 215.546 29.2C217.626 25.2533 219.786 22.0267 222.026 19.52C222.506 18.9333 223.226 18.64 224.186 18.64C225.68 18.64 227.28 19.28 228.986 20.56C230.213 21.04 231.146 21.7067 231.786 22.56C232.48 23.36 232.826 24.2133 232.826 25.12C232.826 25.2267 232.826 25.36 232.826 25.52C232.826 25.68 232.8 25.8133 232.746 25.92C231.893 29.0133 231.2 32.32 230.666 35.84C230.133 39.36 229.84 42.7467 229.786 46L230.186 46.08C231.893 41.9733 233.653 38.0533 235.466 34.32C237.28 30.5333 239.68 26.72 242.666 22.88C243.093 22.4 243.733 22.16 244.586 22.16C246.133 22.16 247.813 22.8 249.626 24.08C250.853 24.5067 251.866 25.0933 252.666 25.84C253.466 26.5867 254.053 27.36 254.426 28.16C253.626 32.0533 252.96 36.4267 252.426 41.28C251.893 46.08 251.626 50.64 251.626 54.96C251.626 56.3467 251.653 57.68 251.706 58.96C251.813 60.24 251.92 61.4667 252.026 62.64C251.333 62.96 250.586 63.12 249.786 63.12ZM269.989 62.96C268.495 62.96 266.975 62.5067 265.429 61.6C263.935 60.64 262.522 59.3867 261.189 57.84C259.909 56.24 258.869 54.48 258.069 52.56C257.269 50.64 256.869 48.72 256.869 46.8C256.869 43.0133 257.402 39.2533 258.469 35.52C259.589 31.7867 261.109 28.4 263.029 25.36C265.002 22.32 267.322 19.8933 269.989 18.08C272.655 16.2667 275.535 15.36 278.629 15.36C280.015 15.36 281.535 15.7867 283.189 16.64C284.842 17.44 286.042 18.64 286.789 20.24C288.815 21.2 290.309 22.64 291.269 24.56C292.229 26.48 292.602 28.24 292.389 29.84C292.229 31.12 291.669 32.5867 290.709 34.24C289.749 35.84 288.522 37.4933 287.029 39.2C285.535 40.8533 283.882 42.4 282.069 43.84C280.255 45.2267 278.389 46.3733 276.469 47.28C274.602 48.1333 272.789 48.56 271.029 48.56C270.389 48.56 269.695 48.3467 268.949 47.92C269.109 49.6267 269.589 50.8533 270.389 51.6C271.242 52.2933 272.362 52.64 273.749 52.64C275.775 52.64 278.015 51.92 280.469 50.48C282.922 49.04 285.535 47.12 288.309 44.72C289.535 45.3067 290.469 46.08 291.109 47.04C291.749 47.9467 291.989 49.0933 291.829 50.48C291.615 52.08 290.762 53.6267 289.269 55.12C287.829 56.56 285.989 57.8933 283.749 59.12C281.562 60.2933 279.242 61.2267 276.789 61.92C274.389 62.6133 272.122 62.96 269.989 62.96ZM281.909 24.16C279.829 24.2667 277.935 25.2267 276.229 27.04C274.522 28.8533 273.082 31.0933 271.909 33.76C270.735 36.3733 269.882 38.9867 269.349 41.6C271.109 41.2267 272.762 40.32 274.309 38.88C275.909 37.3867 277.295 35.7067 278.469 33.84C279.695 31.92 280.629 30.08 281.269 28.32C281.909 26.5067 282.122 25.12 281.909 24.16ZM336.919 63.12C335.639 63.12 334.253 62.6667 332.759 61.76C331.266 60.8533 330.039 59.3067 329.079 57.12C328.119 54.9333 327.746 51.9467 327.959 48.16L329.639 16.08C328.786 16.1867 327.933 16.2667 327.079 16.32C326.279 16.32 325.506 16.32 324.759 16.32C322.786 16.32 320.919 15.8133 319.159 14.8C317.453 13.7867 316.066 12.56 314.999 11.12C313.986 9.68 313.479 8.32 313.479 7.04C313.479 6.13333 314.013 5.68 315.079 5.68C315.719 5.68 316.919 5.6 318.679 5.44C320.439 5.28 322.466 5.09333 324.759 4.88C327.106 4.66666 329.453 4.45333 331.799 4.24C334.199 4.02666 336.359 3.84 338.279 3.68C340.253 3.52 341.693 3.44 342.599 3.44C344.146 3.44 345.746 3.76 347.399 4.4C349.053 4.98666 350.573 5.78666 351.959 6.8C353.399 7.76 354.573 8.85333 355.479 10.08C356.386 11.2533 356.839 12.4 356.839 13.52C356.839 14.1067 356.546 14.4 355.959 14.4C355.426 14.4 354.946 14.4 354.519 14.4C354.093 14.3467 353.639 14.32 353.159 14.32C351.346 14.32 349.506 14.3733 347.639 14.48C345.773 14.5867 343.933 14.72 342.119 14.88L339.399 61.12C339.346 61.8667 339.133 62.3733 338.759 62.64C338.439 62.96 337.826 63.12 336.919 63.12ZM370.598 63.2C368.838 63.2 367.131 62.8533 365.478 62.16C363.878 61.52 362.571 60.4 361.558 58.8C358.998 57.5733 357.025 55.44 355.638 52.4C354.251 49.36 353.558 45.8133 353.558 41.76C353.558 38.24 354.038 34.9067 354.998 31.76C355.958 28.56 357.265 25.7333 358.918 23.28C360.571 20.8267 362.465 18.9067 364.598 17.52C366.785 16.08 369.078 15.36 371.478 15.36C373.505 15.36 375.531 15.7333 377.558 16.48C379.585 17.1733 381.345 18.4533 382.838 20.32C385.451 21.6533 387.451 23.6 388.838 26.16C390.278 28.72 390.998 31.52 390.998 34.56C390.998 38.4533 390.598 42.1333 389.798 45.6C388.998 49.0667 387.771 52.1333 386.118 54.8C384.465 57.4133 382.358 59.4667 379.798 60.96C377.238 62.4533 374.171 63.2 370.598 63.2ZM368.998 54.4C370.598 54.4 372.011 53.7067 373.238 52.32C374.465 50.9333 375.505 49.1733 376.358 47.04C377.211 44.8533 377.851 42.5067 378.278 40C378.758 37.4933 378.998 35.12 378.998 32.88C378.998 30.4267 378.705 28.3733 378.118 26.72C377.585 25.0667 376.705 24.24 375.478 24.24C373.878 24.24 372.465 24.9333 371.238 26.32C370.011 27.7067 368.971 29.4933 368.118 31.68C367.265 33.8133 366.598 36.1333 366.118 38.64C365.691 41.1467 365.478 43.52 365.478 45.76C365.478 48.2133 365.771 50.2667 366.358 51.92C366.945 53.5733 367.825 54.4 368.998 54.4ZM132.898 159.04C132.098 159.04 131.191 158.747 130.178 158.16C129.165 157.627 128.151 156.693 127.138 155.36C126.178 154.027 125.378 152.213 124.738 149.92C124.098 147.627 123.778 144.747 123.778 141.28C123.778 139.093 123.831 136.293 123.938 132.88C124.045 129.413 124.231 125.653 124.498 121.6C124.818 117.493 125.191 113.36 125.618 109.2C124.338 108.347 123.191 107.28 122.178 106C121.218 104.667 120.738 103.333 120.738 102C120.738 101.52 120.898 101.2 121.218 101.04C121.538 100.827 121.885 100.72 122.258 100.72C123.751 100.72 125.511 100.64 127.538 100.48C129.618 100.32 131.725 100.16 133.858 100C135.991 99.84 137.885 99.76 139.538 99.76C142.578 99.76 145.378 100.267 147.938 101.28C150.498 102.24 152.738 103.547 154.658 105.2C156.631 106.8 158.151 108.56 159.218 110.48C160.285 112.347 160.818 114.187 160.818 116C160.818 117.653 160.205 119.68 158.978 122.08C157.805 124.48 156.018 127.04 153.618 129.76C151.271 132.48 148.338 135.093 144.818 137.6L169.698 166.64C169.965 166.907 170.205 167.253 170.418 167.68C170.631 168.107 170.738 168.507 170.738 168.88C170.738 169.627 170.258 170 169.298 170C168.498 170 167.405 169.84 166.018 169.52C164.631 169.2 163.191 168.693 161.698 168C160.258 167.36 158.978 166.533 157.858 165.52L134.738 143.84C134.685 145.493 134.631 147.12 134.578 148.72C134.525 150.267 134.498 151.707 134.498 153.04C134.498 153.947 134.498 154.8 134.498 155.6C134.551 156.4 134.605 157.147 134.658 157.84V157.92C134.658 158.347 134.471 158.64 134.098 158.8C133.725 158.96 133.325 159.04 132.898 159.04ZM144.818 109.04C143.751 109.04 142.605 109.12 141.378 109.28C140.205 109.44 139.058 109.6 137.938 109.76C137.458 113.387 137.005 117.333 136.578 121.6C136.151 125.813 135.751 130 135.378 134.16C138.258 132.293 140.658 130.213 142.578 127.92C144.498 125.573 145.911 123.253 146.818 120.96C147.778 118.667 148.258 116.587 148.258 114.72C148.258 113.28 147.965 112.053 147.378 111.04C146.845 110.027 145.991 109.36 144.818 109.04ZM185.115 159.2C183.462 159.2 181.835 158.933 180.235 158.4C178.635 157.867 177.355 156.88 176.395 155.44C172.342 153.467 169.435 150.613 167.675 146.88C165.968 143.093 165.115 138.267 165.115 132.4C165.115 128.453 165.595 124.56 166.555 120.72C167.568 116.88 169.035 113.387 170.955 110.24C172.875 107.093 175.248 104.587 178.075 102.72C180.955 100.8 184.235 99.84 187.915 99.84C189.942 99.84 191.968 100.187 193.995 100.88C196.022 101.573 197.515 102.693 198.475 104.24C200.982 105.147 202.875 106.533 204.155 108.4C205.435 110.267 206.288 112.56 206.715 115.28C207.195 118 207.435 121.12 207.435 124.64C207.435 127.733 207.115 130.907 206.475 134.16C205.835 137.413 204.902 140.533 203.675 143.52C202.448 146.507 200.928 149.173 199.115 151.52C197.302 153.867 195.222 155.733 192.875 157.12C190.528 158.507 187.942 159.2 185.115 159.2ZM182.155 150.08C183.862 149.653 185.462 148.453 186.955 146.48C188.502 144.453 189.862 141.973 191.035 139.04C192.262 136.053 193.222 132.933 193.915 129.68C194.608 126.373 194.955 123.253 194.955 120.32C194.955 117.493 194.582 114.933 193.835 112.64C193.142 110.347 192.022 109.013 190.475 108.64C188.502 109.013 186.715 110.187 185.115 112.16C183.568 114.133 182.262 116.56 181.195 119.44C180.182 122.32 179.382 125.387 178.795 128.64C178.262 131.84 177.995 134.907 177.995 137.84C177.995 141.093 178.315 143.76 178.955 145.84C179.648 147.867 180.715 149.28 182.155 150.08ZM231.529 159.12C230.249 159.12 228.862 158.667 227.369 157.76C225.875 156.853 224.649 155.307 223.689 153.12C222.729 150.933 222.355 147.947 222.569 144.16L224.249 112.08C223.395 112.187 222.542 112.267 221.689 112.32C220.889 112.32 220.115 112.32 219.369 112.32C217.395 112.32 215.529 111.813 213.769 110.8C212.062 109.787 210.675 108.56 209.609 107.12C208.595 105.68 208.089 104.32 208.089 103.04C208.089 102.133 208.622 101.68 209.689 101.68C210.329 101.68 211.529 101.6 213.289 101.44C215.049 101.28 217.075 101.093 219.369 100.88C221.715 100.667 224.062 100.453 226.409 100.24C228.809 100.027 230.969 99.84 232.889 99.68C234.862 99.52 236.302 99.44 237.209 99.44C238.755 99.44 240.355 99.76 242.009 100.4C243.662 100.987 245.182 101.787 246.569 102.8C248.009 103.76 249.182 104.853 250.089 106.08C250.995 107.253 251.449 108.4 251.449 109.52C251.449 110.107 251.155 110.4 250.569 110.4C250.035 110.4 249.555 110.4 249.129 110.4C248.702 110.347 248.249 110.32 247.769 110.32C245.955 110.32 244.115 110.373 242.249 110.48C240.382 110.587 238.542 110.72 236.729 110.88L234.009 157.12C233.955 157.867 233.742 158.373 233.369 158.64C233.049 158.96 232.435 159.12 231.529 159.12ZM254.527 161.44C252.714 161.44 251.087 160.747 249.647 159.36C248.26 158.027 247.567 155.973 247.567 153.2C247.567 152.08 247.727 150.827 248.047 149.44C247.14 148.693 246.447 147.84 245.967 146.88C245.487 145.867 245.247 145.013 245.247 144.32C245.3 143.893 245.674 143.547 246.367 143.28C247.114 143.013 248.367 142.773 250.127 142.56C251.727 138.027 253.567 133.04 255.647 127.6C257.78 122.16 260.26 116.24 263.087 109.84C263.727 108.453 264.607 107.76 265.727 107.76C266.207 107.76 266.714 107.893 267.247 108.16C267.14 106.613 267.034 105.093 266.927 103.6C266.874 102.32 267.114 101.387 267.647 100.8C268.234 100.213 268.954 99.92 269.807 99.92C270.874 99.92 272.02 100.32 273.247 101.12C274.474 101.92 275.54 103.04 276.447 104.48C277.354 105.92 277.834 107.653 277.887 109.68C277.94 111.707 278.1 114.32 278.367 117.52C278.687 120.667 279.06 124.08 279.487 127.76C279.914 131.387 280.367 134.96 280.847 138.48C281.967 138.64 283.114 139.04 284.287 139.68C285.514 140.267 286.554 141.04 287.407 142C288.26 142.907 288.687 143.947 288.687 145.12C288.687 145.973 288.394 146.507 287.807 146.72C287.22 146.933 286.474 147.04 285.567 147.04H283.647C283.38 147.04 283.114 147.04 282.847 147.04C282.634 147.04 282.394 147.04 282.127 147.04C282.554 149.547 282.954 151.653 283.327 153.36C283.7 155.067 284.047 156.187 284.367 156.72C284.687 157.253 284.474 157.787 283.727 158.32C282.98 158.853 282.127 159.12 281.167 159.12C279.354 159.12 277.754 158.48 276.367 157.2C274.98 155.92 273.994 153.493 273.407 149.92C273.3 149.44 273.22 148.933 273.167 148.4L258.207 150.72C257.62 152.533 257.034 154.32 256.447 156.08C256.02 157.467 255.78 158.56 255.727 159.36C255.727 160.16 255.7 160.693 255.647 160.96C255.594 161.28 255.22 161.44 254.527 161.44ZM268.927 123.6C267.647 126.587 266.42 129.52 265.247 132.4C264.074 135.28 262.927 138.107 261.807 140.88L271.567 139.52C271.087 136.853 270.607 134.213 270.127 131.6C269.7 128.987 269.3 126.32 268.927 123.6Z" fill="white"/>
</svg>
